<?xml version="1.0" standalone="no"?>
<!DOCTYPE svg PUBLIC "-//W3C//DTD SVG 20010904//EN"
 "http://www.w3.org/TR/2001/REC-SVG-20010904/DTD/svg10.dtd">
<svg version="1.0" xmlns="http://www.w3.org/2000/svg"
 width="300.000000pt" height="287.000000pt" viewBox="0 0 300.000000 287.000000"
 preserveAspectRatio="xMidYMid meet">
<metadata>
Created by potrace 1.10, written by Peter Selinger 2001-2011
</metadata>
<g transform="translate(0.000000,287.000000) scale(0.100000,-0.100000)"
fill="#000000" stroke="none">
<path d="M2126 2844 c-236 -57 -436 -258 -502 -504 -24 -88 -24 -253 -1 -340
58 -218 219 -400 427 -483 279 -111 615 -18 800 221 88 114 144 261 138 359
l-3 48 -17 -45 c-9 -25 -28 -85 -43 -133 -63 -200 -217 -357 -419 -424 -70
-23 -98 -27 -206 -27 -111 0 -134 3 -205 28 -212 74 -368 236 -431 451 -22 75
-25 247 -5 325 30 121 86 220 179 313 97 99 210 155 385 191 70 15 84 15 155
0 42 -8 81 -20 86 -25 6 -5 -67 -86 -187 -207 -122 -123 -202 -212 -212 -235
-23 -55 -19 -143 9 -202 26 -55 158 -190 214 -219 52 -27 122 -31 183 -11 48
16 75 39 250 211 107 107 200 194 206 194 7 0 19 -24 27 -52 24 -81 36 -92 36
-34 0 43 -25 164 -36 175 -3 3 -107 -97 -232 -221 -187 -186 -234 -228 -267
-237 -57 -16 -94 -13 -143 9 -53 24 -165 130 -200 189 -33 56 -35 138 -4 196
11 22 115 134 231 250 116 115 211 213 211 216 0 3 -34 13 -75 22 -93 21 -267
21 -349 1z"/>
<path d="M73 2618 l-71 -73 122 -195 123 -195 74 -3 74 -3 290 -289 290 -290
75 75 75 75 -293 293 -293 294 6 59 c5 42 3 64 -7 76 -13 16 -374 248 -387
248 -3 0 -39 -33 -78 -72z m249 -79 c177 -112 178 -112 178 -167 0 -26 9 -65
19 -87 12 -26 113 -134 280 -300 144 -143 261 -263 261 -267 0 -16 -63 -78
-79 -78 -9 0 -133 117 -276 261 -143 143 -272 267 -287 275 -15 8 -51 14 -81
14 -43 0 -58 4 -74 23 -33 35 -203 312 -203 329 0 8 20 34 45 57 53 49 37 53
217 -60z"/>
<path d="M1132 1588 c-134 -134 -250 -257 -258 -274 -7 -17 -10 -42 -7 -55 7
-30 1072 -1100 1128 -1133 113 -67 269 -74 388 -18 169 79 269 267 238 445
-24 136 -21 133 -618 730 -538 537 -549 547 -588 547 -38 0 -47 -8 -283 -242z
m316 188 c15 -8 261 -250 548 -538 433 -435 525 -532 548 -579 119 -247 -41
-530 -309 -547 -88 -5 -168 16 -240 63 -27 19 -283 267 -567 552 -453 453
-518 522 -518 548 0 26 33 63 235 265 198 199 247 243 273 249 2 1 15 -5 30
-13z"/>
<path d="M1365 1621 c-27 -11 -51 -40 -65 -75 -9 -23 -7 -36 9 -70 28 -56 915
-942 954 -951 85 -22 164 75 124 151 -18 34 -912 927 -944 943 -25 13 -50 13
-78 2z m532 -494 c420 -419 463 -465 463 -495 0 -40 -30 -72 -68 -72 -23 0
-103 76 -495 468 -318 318 -467 474 -467 488 0 36 38 74 73 74 29 0 79 -47
494 -463z"/>
<path d="M1134 1390 c-36 -14 -64 -59 -64 -103 0 -41 4 -45 467 -509 323 -324
477 -471 500 -479 91 -30 170 89 111 167 -34 46 -858 873 -902 905 -39 29 -73
35 -112 19z m532 -492 c254 -255 464 -470 467 -479 8 -24 -19 -76 -43 -84 -12
-4 -31 -4 -43 -1 -32 8 -935 915 -942 946 -9 38 27 80 68 80 29 0 78 -46 493
-462z"/>
<path d="M516 939 c-142 -132 -243 -234 -259 -262 -40 -68 -61 -159 -53 -236
12 -134 109 -272 234 -333 118 -58 276 -49 383 22 38 25 194 186 426 441 l42
45 -270 270 -270 270 -233 -217z m483 -83 c203 -203 231 -236 222 -252 -19
-33 -365 -397 -409 -431 -87 -66 -239 -82 -345 -35 -66 29 -161 123 -194 191
-24 49 -27 68 -27 146 0 100 17 149 72 218 48 60 415 397 432 397 9 0 120
-105 249 -234z"/>
<path d="M536 675 c-149 -53 -184 -256 -62 -362 127 -112 330 -29 344 141 6
72 -12 121 -62 170 -62 62 -139 80 -220 51z m172 -58 c47 -31 72 -80 72 -142
0 -62 -25 -111 -71 -142 -119 -79 -273 2 -273 142 0 140 154 221 272 142z"/>
</g>
</svg>
